<svg id="Capa_1" enable-background="new 0 0 512 512" height="512" viewBox="0 0 512 512" width="512" xmlns="http://www.w3.org/2000/svg"><g><g><g fill="#384656"><path d="m256 40.916c-4.276 0-7.742 3.466-7.742 7.742v61.105c0 4.276 3.466 7.742 7.742 7.742s7.742-3.466 7.742-7.742v-61.105c0-4.276-3.466-7.742-7.742-7.742z"/><path d="m256 394.496c-4.276 0-7.742 3.466-7.742 7.742v61.105c0 4.276 3.466 7.742 7.742 7.742s7.742-3.466 7.742-7.742v-61.105c0-4.276-3.466-7.742-7.742-7.742z"/><path d="m360.057 159.685c1.981 0 3.963-.756 5.475-2.268l56.452-56.453c3.023-3.023 3.023-7.925 0-10.949-3.024-3.023-7.925-3.023-10.95 0l-56.452 56.453c-3.023 3.023-3.023 7.925 0 10.949 1.513 1.512 3.495 2.268 5.475 2.268z"/><path d="m367.56 356.611c-3.023-3.023-7.924-3.024-10.95 0-3.023 3.023-3.023 7.925 0 10.949l53.31 53.31c1.512 1.512 3.493 2.268 5.475 2.268 1.981 0 3.963-.756 5.475-2.268 3.023-3.023 3.023-7.925 0-10.949z"/><path d="m100.966 90.016c-3.024-3.023-7.925-3.023-10.95 0-3.023 3.023-3.023 7.925 0 10.949l56.453 56.453c1.512 1.512 3.494 2.268 5.475 2.268s3.963-.756 5.475-2.268c3.023-3.023 3.023-7.925 0-10.949z"/><path d="m144.441 356.611-55.942 55.941c-3.023 3.023-3.023 7.925 0 10.949 1.512 1.512 3.494 2.268 5.475 2.268s3.963-.756 5.475-2.268l55.942-55.941c3.023-3.023 3.023-7.925 0-10.949-3.025-3.023-7.926-3.023-10.95 0z"/><path d="m463.343 248.258h-61.106c-4.276 0-7.742 3.466-7.742 7.742s3.466 7.742 7.742 7.742h61.106c4.276 0 7.742-3.466 7.742-7.742s-3.466-7.742-7.742-7.742z"/><path d="m117.505 256c0-4.276-3.466-7.742-7.742-7.742h-61.106c-4.276 0-7.742 3.466-7.742 7.742s3.466 7.742 7.742 7.742h61.106c4.276 0 7.742-3.466 7.742-7.742z"/></g><path d="m28.974 275.393c12.751 0 27.443-11.651 27.443-28.684-3.873-11.443-14.692-19.684-27.443-19.684s-23.57 8.241-27.443 19.684c0 17.651 14.692 28.684 27.443 28.684z" fill="#e7a561"/><path d="m26.076 90.892c20.544 20.544 53.852 20.544 74.396 0 7.898-7.899 14.572-21.979 14.572-36.907-1.825-10.222-6.674-20.009-14.573-27.908-20.544-20.544-53.852-20.544-74.396 0-7.899 7.899-12.748 17.686-14.573 27.908.002 16.768 6.676 29.008 14.574 36.907z" fill="#ffe07d"/><path d="m256 48.367c12.751 0 27.443-14.963 27.443-28.684-3.873-11.442-14.692-19.683-27.443-19.683s-23.57 8.241-27.443 19.684c0 17.514 14.692 28.683 27.443 28.683z" fill="#b3e59f"/><path d="m411.527 90.892c20.544 20.544 53.852 20.544 74.396 0 7.899-7.899 14.573-22.572 14.573-36.907-1.825-10.222-6.674-20.009-14.572-27.908-20.544-20.544-53.852-20.544-74.396 0-7.899 7.899-12.748 17.686-14.573 27.908 0 16.708 6.674 29.008 14.572 36.907z" fill="#a2dafd"/><path d="m483.026 275.393c12.751 0 27.443-11.651 27.443-28.684-3.873-11.443-14.692-19.684-27.443-19.684s-23.57 8.241-27.443 19.684c0 21.55 14.692 28.684 27.443 28.684z" fill="#b3e59f"/><path d="m411.527 476.343c20.544 20.544 53.852 20.544 74.396 0 7.899-7.899 14.573-23.278 14.573-36.908-1.825-10.222-6.674-20.009-14.572-27.908-20.544-20.544-53.852-20.544-74.396 0-7.899 7.899-12.748 17.686-14.573 27.908 0 15.614 6.674 29.009 14.572 36.908z" fill="#ffe07d"/><path d="m228.557 473.736c0 16.571 14.692 28.684 27.443 28.684s27.443-12.508 27.443-28.684c-3.873-11.443-14.692-19.684-27.443-19.684s-23.57 8.241-27.443 19.684z" fill="#e7a561"/><path d="m26.076 476.343c20.544 20.544 53.852 20.544 74.396 0 7.898-7.899 14.572-22.749 14.572-36.908-1.825-10.222-6.674-20.009-14.573-27.908-20.544-20.544-53.852-20.544-74.396 0-7.899 7.899-12.748 17.686-14.573 27.908.002 16.677 6.676 29.009 14.574 36.908z" fill="#de5974"/><circle cx="256" cy="256" fill="#6e9ff0" r="155.528"/><path d="m365.974 347.394c-60.737 60.737-159.212 60.737-219.949 0-28.005-28.005-43.086-64.032-45.266-100.684-2.548 42.84 12.533 86.532 45.266 119.265 60.737 60.737 159.212 60.737 219.949 0 32.733-32.733 47.814-76.425 45.266-119.265-2.18 36.652-17.261 72.679-45.266 100.684z" fill="#5b90dc"/><path d="m295.738 173.496-86.956 36.119-9 24.171 9 24.172 43.663 27.136 43.293 8.983 9-60.29z" fill="#e5ecf7"/><path d="m208.782 276.539 86.956 36.119 9-10.469-9-8.112-86.956-36.119-9 9z" fill="#b9cbea"/><path d="m177.805 266.958h22.86l8.117-9v-48.343h-30.977c-8.637 0-15.639 6.451-15.639 14.41v19.526c.001 7.957 1.817 23.407 15.639 23.407z" fill="#de5974"/><path d="m176.413 295.119v37.136c0 8.938 7.246 16.185 16.184 16.185 8.939 0 16.185-7.246 16.185-16.185v-37.136l-16.184-9z" fill="#384656"/><path d="m176.413 276.539v18.58h32.369v-18.58l-16.184-9z" fill="#2f3b48"/><path d="m162.166 243.548v18.581c0 7.958 7.002 14.409 15.639 14.409h30.977v-18.581h-30.977c-8.637.001-15.639-6.45-15.639-14.409z" fill="#c7495d"/><path d="m362.018 233.786c-3.83-14.101-16.154-24.701-31.143-25.962l-9 25.962 9 25.962 17.667 2.463s13.476-13.89 13.476-28.425z" fill="#ffe07d"/><path d="m330.875 259.748-9 8.962 9 9.619c18.138-1.525 32.386-16.72 32.386-35.252 0-3.217-.438-6.329-1.243-9.29-3.829 14.101-16.153 24.701-31.143 25.961z" fill="#ffd064"/><path d="m295.738 294.756c0 9.703 1.918 26.568 17.568 26.568s17.569-16.865 17.569-26.568v-121.939c0-9.703-7.866-17.569-17.569-17.569s-17.568 7.866-17.568 17.569z" fill="#de5974"/><path d="m313.306 312.324c-9.703 0-17.568-7.865-17.568-17.568v18.581c0 9.703 7.865 17.568 17.568 17.568s17.568-7.865 17.568-17.568v-18.581c.001 9.703-7.865 17.568-17.568 17.568z" fill="#c7495d"/><path d="m100.473 467.343c-20.544 20.544-53.852 20.544-74.396 0-7.899-7.899-12.748-17.686-14.573-27.908-2.922 16.364 1.928 33.843 14.573 46.488 20.544 20.544 53.852 20.544 74.396 0 12.645-12.645 17.494-30.125 14.573-46.488-1.826 10.222-6.675 20.009-14.573 27.908z" fill="#c7495d"/><path d="m256 493.419c-12.751 0-23.57-8.241-27.443-19.684-.987 2.917-1.531 6.04-1.531 9.29 0 16.003 12.972 28.975 28.974 28.975s28.974-12.972 28.974-28.974c0-3.251-.543-6.373-1.531-9.29-3.873 11.443-14.692 19.683-27.443 19.683z" fill="#e49542"/><path d="m485.923 467.343c-20.544 20.544-53.852 20.544-74.396 0-7.899-7.899-12.748-17.686-14.573-27.908-2.922 16.364 1.928 33.843 14.573 46.488 20.544 20.544 53.852 20.544 74.396 0 12.645-12.645 17.494-30.125 14.573-46.488-1.825 10.222-6.674 20.009-14.573 27.908z" fill="#ffd064"/><path d="m28.974 266.393c-12.751 0-23.57-8.241-27.443-19.684-.988 2.918-1.531 6.04-1.531 9.291 0 16.002 12.972 28.974 28.974 28.974s28.974-12.972 28.974-28.974c0-3.251-.543-6.373-1.531-9.29-3.873 11.443-14.692 19.683-27.443 19.683z" fill="#e49542"/><path d="m483.026 266.393c-12.751 0-23.57-8.241-27.443-19.684-.987 2.917-1.531 6.04-1.531 9.29 0 16.002 12.972 28.974 28.974 28.974 16.002.001 28.974-12.971 28.974-28.973 0-3.251-.543-6.373-1.531-9.29-3.873 11.443-14.692 19.683-27.443 19.683z" fill="#95d6a4"/><path d="m485.923 81.892c-20.544 20.544-53.852 20.544-74.396 0-7.899-7.899-12.748-17.686-14.573-27.908-2.922 16.364 1.928 33.843 14.573 46.489 20.544 20.544 53.852 20.544 74.396 0 12.645-12.645 17.494-30.125 14.573-46.489-1.825 10.222-6.674 20.009-14.573 27.908z" fill="#83c8ea"/><path d="m256 39.367c-12.751 0-23.57-8.24-27.443-19.684-.987 2.917-1.531 6.04-1.531 9.29 0 16.002 12.972 28.974 28.974 28.974s28.974-12.972 28.974-28.974c0-3.251-.543-6.373-1.531-9.29-3.873 11.444-14.692 19.684-27.443 19.684z" fill="#95d6a4"/><path d="m100.473 81.892c-20.544 20.544-53.852 20.544-74.396 0-7.899-7.899-12.748-17.686-14.573-27.908-2.922 16.364 1.928 33.843 14.573 46.489 20.544 20.544 53.852 20.544 74.396 0 12.645-12.645 17.494-30.125 14.573-46.489-1.826 10.222-6.675 20.009-14.573 27.908z" fill="#ffd064"/></g></g></svg>