<svg id="_x33_0" enable-background="new 0 0 64 64" height="512" viewBox="0 0 64 64" width="512" xmlns="http://www.w3.org/2000/svg"><g><g><g><path d="m62 22h-23.07c.36-.62.63-1.29.82-2h2.25c.55 0 1.05-.22 1.41-.59.37-.36.59-.86.59-1.41 0-1.1-.9-2-2-2v-4c0-.69-.07-1.36-.2-2h18.2c1.1 0 2 .9 2 2z" fill="#b4dd7f"/></g><g><path d="m22 20h2.25c.19.71.46 1.38.82 2h-23.07v-10c0-1.1.9-2 2-2h18.2c-.13.64-.2 1.31-.2 2v4c-1.1 0-2 .9-2 2 0 .55.22 1.05.59 1.41.36.37.86.59 1.41.59z" fill="#b4dd7f"/></g><g><path d="m2 22h60v40h-60z" fill="#e6e9ed"/></g><g><path d="m58 27v10c0 .55-.45 1-1 1h-11.79c-1.71-2.76-4.13-5.07-7.08-6.64-.37-.2-.74-.39-1.13-.56-.02-.01-.04-.02-.06-.02-.34-.15-.62-.28-.91-.38-.12-.05-.23-.1-.33-.17-.47-.29-.81-.76-.92-1.31l-.58-2.92h22.8c.55 0 1 .45 1 1z" fill="#ffeaa7"/></g><g><path d="m29.8 26-.58 2.92c-.11.55-.45 1.02-.92 1.31-.1.07-.21.12-.33.17-.31.12-.61.24-.91.38-.41.18-.81.37-1.19.58-2.68 1.42-4.92 3.46-6.59 5.9-.17.24-.33.49-.48.75l-.01-.01h-11.79c-.55 0-1-.45-1-1v-10c0-.55.45-1 1-1z" fill="#ffeaa7"/></g><g><path d="m39.03 11.42-4.03-2.42h-6l-4.03 2.42c-.6.36-.97 1.01-.97 1.71v2.87h-2v-4c0-.69.07-1.36.2-2 .93-4.56 4.97-8 9.8-8 2.76 0 5.26 1.12 7.07 2.93 1.36 1.36 2.33 3.11 2.73 5.07.13.64.2 1.31.2 2v4h-2v-2.87c0-.7-.37-1.35-.97-1.71z" fill="#656d78"/></g><g><path d="m18 15v2c0 .55-.45 1-1 1h-2c-.55 0-1-.45-1-1v-2c0-.55.45-1 1-1h2c.55 0 1 .45 1 1z" fill="#e6e9ed"/></g><g><path d="m10 15v2c0 .55-.45 1-1 1h-2c-.55 0-1-.45-1-1v-2c0-.55.45-1 1-1h2c.55 0 1 .45 1 1z" fill="#e6e9ed"/></g><g><path d="m33 38 1.84 6.45c-.72 1.95-1.68 3.81-2.84 5.55-1.16-1.74-2.12-3.6-2.84-5.55l1.84-6.45z" fill="#ffeaa7"/></g><g><path d="m30.06 35.17 1.94-1.17 1.94 1.17-.94 2.83h-2z" fill="#fcd770"/></g><g><path d="m36.5 36.7h.02l-.01.11c-.17 2.35-.64 4.67-1.4 6.89-.08.25-.17.5-.27.75l-1.84-6.45.94-2.83z" fill="#ef7385"/></g><g><path d="m30.06 35.17.94 2.83-1.84 6.45c-.92-2.45-1.49-5.02-1.67-7.64l-.01-.1z" fill="#ef7385"/></g><g><path d="m36.03 30.4c.29.1.57.23.91.38l-.42 5.92h-.02l-2.56-1.53-1.94-1.17-1.94 1.17-2.58 1.54-.42-5.93c.3-.14.6-.26.91-.38.12-.05.23-.1.33-.17l3.7 2.77 3.7-2.77c.1.07.21.12.33.17z" fill="#ed5565"/></g><g><path d="m42 48h-1c-.55 0-1 .45-1 1v6c0 .55.45 1 1 1h1l1.41 1.41c.38.38.59.89.59 1.42v2.17c0 .55.45 1 1 1h-23-6v-14.17c0-3.56 1.01-6.94 2.8-9.82.15-.26.31-.51.48-.75 1.67-2.44 3.91-4.48 6.59-5.9l-2.87 7.64 4 2-2 3 7 6 7-6-2-3 4-2-2.87-7.64c2.95 1.57 5.37 3.88 7.08 6.64 1.79 2.89 2.79 6.28 2.79 9.83-.81.12-1.64.17-2.47.17h-2.53z" fill="#75b1f2"/></g><g><path d="m38.13 31.36 2.87 7.64-4 2 2 3-7 6c1.16-1.74 2.12-3.6 2.84-5.55.1-.25.19-.5.27-.75.76-2.22 1.23-4.54 1.4-6.89l.01-.11.42-5.92c.02 0 .04.01.06.02.39.17.76.36 1.13.56z" fill="#5d9cec"/></g><g><path d="m29.16 44.45c.72 1.95 1.68 3.81 2.84 5.55l-7-6 2-3-4-2 2.87-7.64c.38-.21.78-.4 1.19-.58l.42 5.93.01.1c.18 2.62.75 5.19 1.67 7.64z" fill="#5d9cec"/></g><g><path d="m43 56h2.53c.83 0 1.66.05 2.47.17v4.83c0 .55-.45 1-1 1h-2c-.55 0-1-.45-1-1v-2.17c0-.53-.21-1.04-.59-1.42l-1.41-1.41z" fill="#cf9e76"/></g><g><path d="m48 56.17c-.81-.12-1.64-.17-2.47-.17h-2.53c.55 0 1-.45 1-1v-6c0-.55-.45-1-1-1h2.53c.83 0 1.66-.05 2.47-.17 2.08-.26 4.11-.88 6-1.83v12c-1.89-.95-3.92-1.57-6-1.83z" fill="#ccd1d9"/></g><g><path d="m58 54v5c0 .55-.45 1-1 1h-2c-.55 0-1-.45-1-1v-1-12-1c0-.55.45-1 1-1h2c.55 0 1 .45 1 1v5z" fill="#fcd770"/></g><g><path d="m43 48c.55 0 1 .45 1 1v6c0 .55-.45 1-1 1h-1-1c-.55 0-1-.45-1-1v-6c0-.55.45-1 1-1h1z" fill="#fcd770"/></g><g><path d="m59.98 49.98c1.11-.01 2.02.89 2.02 2 0 .55-.22 1.05-.58 1.41s-.85.59-1.4.59l-2.02.02v-4z" fill="#ef7385"/></g><g><path d="m42 16c1.1 0 2 .9 2 2 0 .55-.22 1.05-.59 1.41-.36.37-.86.59-1.41.59h-2.25c.16-.64.25-1.31.25-2v-2z" fill="#f0d0b4"/></g><g><path d="m34.2 26 .58 2.92c.11.55.45 1.02.92 1.31l-3.7 2.77-3.7-2.77c.47-.29.81-.76.92-1.31l.58-2.92.06-.29 2.14.29c.74 0 1.46-.1 2.14-.29z" fill="#f0d0b4"/></g><g><path d="m40 16v2c0 .69-.09 1.36-.25 2-.19.71-.46 1.38-.82 2-1.04 1.79-2.75 3.15-4.79 3.71-.68.19-1.4.29-2.14.29l-2.14-.29c-1.35-.37-2.56-1.09-3.52-2.05-.49-.49-.92-1.05-1.27-1.66-.36-.62-.63-1.29-.82-2-.16-.64-.25-1.31-.25-2v-2-2.87c0-.7.37-1.35.97-1.71l4.03-2.42h6l4.03 2.42c.6.36.97 1.01.97 1.71z" fill="#f0d0b4"/></g><g><path d="m24.25 20h-2.25c-.55 0-1.05-.22-1.41-.59-.37-.36-.59-.86-.59-1.41 0-1.1.9-2 2-2h2v2c0 .69.09 1.36.25 2z" fill="#f0d0b4"/></g><g><path d="m35 18-.51 2.06c-.29 1.14-1.31 1.94-2.49 1.94s-2.2-.8-2.49-1.94l-.51-2.06z" fill="#ef7385"/></g></g><g><circle cx="28" cy="14" r="1"/><circle cx="36" cy="14" r="1"/><path d="m31 53h2v2h-2z"/><path d="m31 57h2v2h-2z"/><path d="m60 9h-17.426c-1.311-4.61-5.55-8-10.574-8s-9.263 3.39-10.574 8h-17.426c-1.654 0-3 1.346-3 3v51h44 2c1.103 0 2-.897 2-2v-3.651c1.378.273 2.724.705 4 1.29v.361c0 1.103.897 2 2 2h2c1.103 0 2-.897 2-2v-4.01l1.031-.011c1.637-.016 2.969-1.362 2.969-3v-39.979c0-1.654-1.346-3-3-3zm0 2c.551 0 1 .449 1 1v9h-19c1.654 0 3-1.346 3-3 0-1.302-.839-2.402-2-2.816v-3.184c0-.338-.021-.67-.051-1zm-19 7v-1h1c.551 0 1 .449 1 1s-.449 1-1 1h-1.059c.037-.329.059-.662.059-1zm-18-6c0-4.962 4.038-9 9-9s9 4.038 9 9v1.132c0-1.048-.558-2.034-1.457-2.572l-4.029-2.417-1.029 1.715 4.029 2.417c.3.18.486.508.486.857v4.868c0 3.86-3.14 7-7 7s-7-3.14-7-7v-4.868c0-.349.186-.678.486-.857l3.452-2.071 3.462 2.596 1.2-1.6-4.538-3.404-4.605 2.764c-.899.539-1.457 1.524-1.457 2.572zm14.411 17.889c-.336-.151-.677-.293-1.024-.427-.322-.124-.554-.399-.622-.737l-.345-1.725h21.58v10h-11.26c-2.012-3.053-4.867-5.551-8.329-7.111zm-19.123 7.111h-11.288v-10h21.58l-.345 1.725c-.067.337-.3.613-.622.736-3.886 1.495-7.107 4.184-9.325 7.539zm9.899-5.61 2.764 2.073-2.59 1.554-.256-3.591c.028-.012.054-.025.082-.036zm7.627-.001c.027.011.054.023.081.034l-.257 3.594-2.59-1.554zm-3.535 5.611h-.559l-.463-1.389.743-.445.742.445zm-2.778-.335.453 1.358-.824 2.885c-.285-1.203-.482-2.427-.594-3.663zm2.253 2.335h.492l1.54 5.39c-.499 1.283-1.091 2.53-1.786 3.722-.695-1.192-1.287-2.44-1.786-3.722zm2.292-.977.453-1.357.966.58c-.113 1.236-.31 2.46-.594 3.663zm-.688-11.137.446 2.23c.071.357.222.677.406.976l-2.21 1.658-2.21-1.657c.184-.299.335-.619.406-.976l.446-2.231c.444.068.895.114 1.358.114s.914-.046 1.358-.114zm-7.129 6.352.26 3.641c.07.987.207 1.966.38 2.937l-2.616-1.308zm1.163 8.976c.327 1.213.734 2.404 1.219 3.564l-2.287-1.961zm9.216 0 1.069 1.603-2.287 1.961c.484-1.159.891-2.35 1.218-3.564zm.523-2.398c.173-.971.309-1.95.38-2.937l.26-3.641 1.976 5.27zm-15.131-22.816h1v1c0 .338.022.671.059 1h-1.059c-.551 0-1-.449-1-1s.449-1 1-1zm-18-6h17.051c-.03.33-.051.662-.051 1v3.184c-1.161.414-2 1.514-2 2.816 0 1.654 1.346 3 3 3h-19v-9c0-.551.449-1 1-1zm-1 12h21.522c.507.756 1.127 1.429 1.834 2h-19.356c-1.103 0-2 .897-2 2v10c0 1.103.897 2 2 2h10.125c-1.362 2.694-2.125 5.707-2.125 8.828v13.172h-12zm20 38v-16.586c0-1.179-.459-2.287-1.292-3.121l-1.415 1.414c.456.456.707 1.063.707 1.707v16.586h-4v-13.172c0-5.512 2.627-10.656 6.855-13.957l-2.108 5.621 3.792 1.896-1.863 2.795 7.673 6.576.002-.002c.179.153.407.243.649.243s.47-.09.649-.243l.002.002 7.673-6.576-1.863-2.795 3.792-1.896-2.113-5.635c4.027 3.123 6.564 7.888 6.828 13.077-.48.039-.96.066-1.44.066h-2.528v-2.586c0-.645.251-1.251.708-1.707l-1.415-1.414c-.834.834-1.293 1.942-1.293 3.121v2.586c-1.103 0-2 .897-2 2v6c0 1.103.897 2 2 2h.586l1.121 1.121c.186.187.293.444.293.707v2.172zm20-6h-2v-6h2zm4 6h-2v-2.172c0-.673-.231-1.305-.638-1.828h1.166c.491 0 .982.028 1.472.069zm-1.472-6h-.528v-6h.528c2.552 0 5.104-.507 7.472-1.462v8.924c-2.368-.955-4.92-1.462-7.472-1.462zm7.472-10v.362c-1.29.59-2.649 1.026-4.043 1.298-.161-2.708-.883-5.306-2.067-7.66h10.11c1.103 0 2-.897 2-2v-10c0-1.103-.897-2-2-2h-19.356c.707-.571 1.327-1.244 1.834-2h21.522v26.155c-.327-.117-.672-.185-1.031-.176l-.969.011v-3.99c0-1.103-.897-2-2-2h-2c-1.103 0-2 .897-2 2zm2 14v-14h2l.001 14zm5.01-6.021-1.01.01v-2l.99-.01c.221.004.521.1.713.289.192.19.297.442.297.711 0 .546-.443.995-.99 1z"/><path d="m7 19h2c1.103 0 2-.897 2-2v-2c0-1.103-.897-2-2-2h-2c-1.103 0-2 .897-2 2v2c0 1.103.897 2 2 2zm0-4h2l.001 2h-2.001z"/><path d="m15 19h2c1.103 0 2-.897 2-2v-2c0-1.103-.897-2-2-2h-2c-1.103 0-2 .897-2 2v2c0 1.103.897 2 2 2zm0-4h2l.001 2h-2.001z"/><path d="m28.545 20.302c.396 1.589 1.817 2.698 3.455 2.698s3.059-1.109 3.455-2.698l.826-3.302h-8.562zm5.174-1.302-.205.817c-.173.697-.796 1.183-1.514 1.183s-1.341-.486-1.515-1.183l-.204-.817z"/><path d="m5 41h8v2h-8z"/><path d="m5 45h8v2h-8z"/><path d="m5 49h4v2h-4z"/></g></g></svg>