<svg height="512" viewBox="0 0 512 512" width="512" xmlns="http://www.w3.org/2000/svg"><g id="filled_outline" data-name="filled outline"><path d="m345.018 196.024a45.088 45.088 0 0 1 -9.018-27.054v-40.97a80 80 0 0 0 -80-80 80 80 0 0 0 -80 80v40.97a45.088 45.088 0 0 1 -9.018 27.054 74.911 74.911 0 0 0 -14.982 44.946 74.911 74.911 0 0 0 21.941 52.97l2.059 2.06h160l2.059-2.059a74.911 74.911 0 0 0 21.941-52.97 74.911 74.911 0 0 0 -14.982-44.947z" fill="#f3af3e"/><path d="m488 273.58a17.606 17.606 0 0 1 -14.14 17.25l-25.86 5.17-15.81 63.25a43.234 43.234 0 0 1 -77.12 14.65l-13.28-18.59-13.79-19.31v-56h.19a51.5 51.5 0 0 1 46.04 28.45l4.44 8.88 13.33 26.67 20.11-73.75a19.351 19.351 0 0 1 18.66-14.25h39.65a17.579 17.579 0 0 1 17.58 17.58z" fill="#fdc9a6"/><path d="m374.23 308.45a51.5 51.5 0 0 0 -46.04-28.45h-150.19a42 42 0 0 0 -42 42v102h192v-24l6.538-10.9a43.473 43.473 0 0 0 1.773-41.466l5.479 7.672 2.21-3.306 32-32 2.67-2.67z" fill="#428dc5"/><path d="m208 184h-24a16 16 0 0 1 -16-16 16 16 0 0 1 16-16h24z" fill="#f7c4a2"/><path d="m112 472h-88v-36a12 12 0 0 1 12-12h440a12 12 0 0 1 12 12v36z" fill="#8f563b"/><path d="m280 264v-24h-48v24a16 16 0 0 1 -16 16l40 80 40-80a16 16 0 0 1 -16-16z" fill="#f7c4a2"/><path d="m288 424h-104v-32h90a14 14 0 0 1 14 14z" fill="#fdc9a6"/><path d="m400 48h88v120h-88z" fill="#fbb540"/><path d="m456 128a7.974 7.974 0 0 1 -5.657-2.343l-16-16c-3.124-3.124-3.124-2.533 0-5.657s8.189-8.781 11.314-5.657l16 16a8 8 0 0 1 -5.657 13.657z" fill="#f55648"/><path d="m400 168h88v40h-24a22.627 22.627 0 0 0 -32 0h-32z" fill="#da922a"/><path d="m101.563 239.364-29.563 24.636-29.563-24.636a51.241 51.241 0 0 1 -18.437-39.364 48 48 0 0 1 48-48 48 48 0 0 1 48 48 51.241 51.241 0 0 1 -18.437 39.364z" fill="#baf6e4"/><circle cx="72" cy="200" fill="#a1d6c6" r="16"/><path d="m64 288h16v16h-16z" fill="#c0f5f9"/><path d="m64 320h16v32h-16z" fill="#c0f5f9"/><path d="m232 312h48l-24 48z" fill="#3775a4"/><path d="m296 280 8 40-48 40z" fill="#ebebeb"/><path d="m216 280-8 40 48 40z" fill="#ebebeb"/><path d="m256 248a56 56 0 0 1 -56-56v-40l2.951-1.967a73.735 73.735 0 0 0 29.049-38.033l23.417 19.514a88.383 88.383 0 0 0 56.583 20.486v40a56 56 0 0 1 -56 56z" fill="#fdc9a6"/><g fill="#a45e14"><circle cx="226" cy="168" r="10"/><circle cx="282" cy="168" r="10"/><path d="m264 200h-16a8 8 0 0 1 -7.59-10.53l8-24a8 8 0 0 1 15.18 5.06l-4.49 13.47h4.9a8 8 0 0 1 0 16z"/><path d="m256 223.975a43.8 43.8 0 0 1 -19.577-4.6 8 8 0 0 1 7.154-14.312 27.908 27.908 0 0 0 24.846 0 8 8 0 0 1 7.154 14.312 43.8 43.8 0 0 1 -19.577 4.6z"/></g><path d="m216 424h-144l-32-80h152z" fill="#cbcbcb"/><path d="m464 112h-40a8 8 0 0 1 0-16h32a8 8 0 0 1 16 0v8a8 8 0 0 1 -8 8z" fill="#f55648"/><path d="m24 456h464v16h-464z" fill="#744630"/><circle cx="226" cy="168" r="10"/><circle cx="282" cy="168" r="10"/><path d="m248 200h16a8 8 0 0 0 0-16h-4.9l4.49-13.47a8 8 0 0 0 -15.18-5.06l-8 24a8 8 0 0 0 7.59 10.53z"/><path d="m268.423 205.067a27.908 27.908 0 0 1 -24.846 0 8 8 0 0 0 -7.154 14.312 43.993 43.993 0 0 0 39.154 0 8 8 0 0 0 -7.154-14.312z"/><path d="m488 40h-88a8 8 0 0 0 -8 8v160a8 8 0 0 0 8 8h32a8 8 0 0 0 5.656-2.343 14.646 14.646 0 0 1 20.688 0 8 8 0 0 0 5.656 2.343h24a8 8 0 0 0 8-8v-160a8 8 0 0 0 -8-8zm-80 16h72v104h-72zm72 144h-12.97a30.691 30.691 0 0 0 -38.06 0h-20.97v-24h72z"/><path d="m464 88a8 8 0 0 0 -8 8h-32a8 8 0 0 0 0 16h12.686l13.657 13.657a8 8 0 0 0 11.314-11.314l-2.343-2.343h4.686a8 8 0 0 0 8-8v-8a8 8 0 0 0 -8-8z"/><path d="m37.316 245.51 29.563 24.636a8 8 0 0 0 10.242 0l29.563-24.636a59.084 59.084 0 0 0 21.316-45.51 56 56 0 0 0 -112 0 59.084 59.084 0 0 0 21.316 45.51zm34.684-85.51a40.045 40.045 0 0 1 40 40 43.122 43.122 0 0 1 -15.559 33.218l-24.441 20.368-24.441-20.368a43.122 43.122 0 0 1 -15.559-33.218 40.045 40.045 0 0 1 40-40z"/><path d="m57.561 219.17a23.805 23.805 0 0 0 14.388 4.83 24.472 24.472 0 0 0 3.4-.238 24 24 0 1 0 -17.784-4.6zm8.048-23.983a7.953 7.953 0 0 1 5.276-3.109 8.171 8.171 0 0 1 1.132-.078 8 8 0 1 1 -6.408 3.188z"/><path d="m64 288h16v16h-16z"/><path d="m341.4 393.221a51.578 51.578 0 0 0 6.259-15.938l.9 1.261a51.232 51.232 0 0 0 91.394-17.354l14.582-58.338 20.911-4.18a25.586 25.586 0 0 0 -5.026-50.672h-39.65a27.412 27.412 0 0 0 -26.377 20.146l-14.6 53.542-3.966-7.935-4.44-8.882a59.353 59.353 0 0 0 -23.178-24.8 82.913 82.913 0 0 0 -6.791-88.858 37.263 37.263 0 0 1 -7.418-22.243v-40.97a88 88 0 1 0 -176 0v22.131a23.943 23.943 0 0 0 -2.748 32.827 36.8 36.8 0 0 1 -4.671 8.262 82.932 82.932 0 0 0 -10.273 81.48c.836 2.023 1.779 4.013 2.784 5.977a50.019 50.019 0 0 0 -25.092 43.323v14h-48v-16h-16v16h-24a8 8 0 0 0 -7.428 10.971l27.612 69.029h-24.184a20.023 20.023 0 0 0 -20 20v36a8 8 0 0 0 8 8h464a8 8 0 0 0 8-8v-36a20.023 20.023 0 0 0 -20-20h-140v-13.784zm35.08-62.384 8.367 16.74a8 8 0 0 0 14.874-1.473l20.109-73.744a11.375 11.375 0 0 1 10.94-8.36h39.65a9.586 9.586 0 0 1 1.872 18.985l-25.86 5.17a8 8 0 0 0 -6.194 5.905l-15.809 63.251a35.235 35.235 0 0 1 -62.849 11.939l-9.8-13.717zm-192.48-202.837a72 72 0 0 1 144 0v40.97a53.347 53.347 0 0 0 10.62 31.85 66.9 66.9 0 0 1 4.692 73.112 60.05 60.05 0 0 0 -15.123-1.932h-32.189a7.979 7.979 0 0 1 -8-8v-16.61a64.023 64.023 0 0 0 32-55.39v-40a8 8 0 0 0 -8-8 80.534 80.534 0 0 1 -51.462-18.632l-23.417-19.514a8 8 0 0 0 -12.711 3.616 66.043 66.043 0 0 1 -25.9 33.907l-.935.623h-13.575zm72 214.112-11.056-22.112h22.112zm0-102.112a48.054 48.054 0 0 1 -48-48v-35.723a82.2 82.2 0 0 0 27.216-31.184l15.084 12.567a96.586 96.586 0 0 0 53.7 22.006v32.334a48.054 48.054 0 0 1 -48 48zm0 16a63.921 63.921 0 0 0 16-2.025v10.025a23.9 23.9 0 0 0 7.033 16.987 24.168 24.168 0 0 0 5.481 4.1l-9.458 18.913h-38.112l-9.465-18.929a24.019 24.019 0 0 0 12.521-21.071v-10.025a63.921 63.921 0 0 0 16 2.025zm-36.729 48.433 12.47 24.938-14.963-12.471zm73.458 0 2.493 12.468-14.963 12.47zm-116.729-136.433a8.009 8.009 0 0 1 8-8h8v16h-8a8.009 8.009 0 0 1 -8-8zm-10.909 98.577a66.907 66.907 0 0 1 8.287-65.753 52.871 52.871 0 0 0 5.608-9.355 24.014 24.014 0 0 0 5.014.531h8a64.023 64.023 0 0 0 32 55.39v16.61a8.009 8.009 0 0 1 -8 8h-38a50 50 0 0 0 -9.831.976 65.651 65.651 0 0 1 -3.078-6.399zm-113.275 85.423h134.232l19.2 64h-127.832zm228.184 64h-58.047l-4.8-16h56.847a6.006 6.006 0 0 1 6 6zm200 20v28h-448v-28a4 4 0 0 1 4-4h440a4 4 0 0 1 4 4zm-184-20v-10a22.025 22.025 0 0 0 -22-22h-61.647l-12.69-42.3a8 8 0 0 0 -7.663-5.7h-48v-14a34.038 34.038 0 0 1 34-34h28.241l-6.086 30.431a8 8 0 0 0 2.724 7.715l48 40a8 8 0 0 0 10.088.125c.052-.041.1-.087.149-.129l48-40a8 8 0 0 0 2.724-7.715l-4.8-24.009-.013-.063-1.268-6.355h22.43a43.249 43.249 0 0 1 38.886 24.027l1.861 3.723-26.611 26.611a8 8 0 0 0 -13.2 8.79 35.355 35.355 0 0 1 -1.447 33.838l-6.537 10.9a8 8 0 0 0 -1.141 4.111v16z"/></g></svg>